<svg width="135" height="40" viewBox="0 0 135 40" fill="none" xmlns="http://www.w3.org/2000/svg">
<path d="M75.8613 9.30014C76.3915 8.48654 76.8804 8.44127 77.8086 8.89194L79.9043 10.1039C80.657 10.5119 80.6572 10.9193 80.6572 11.8226V30.5404H77.8086L77.7969 12.1146C77.7967 11.8225 77.4991 11.6529 77.3213 11.9232L65.3281 29.9955C64.7086 30.9005 64.2213 31.0809 63.1602 30.4915L60.7695 29.2269C60.0208 28.8194 60.0644 28.4116 60.0645 27.5072V8.89877H62.9238V27.3167C62.9238 27.633 63.2359 27.7252 63.4121 27.4535L75.8613 9.30014ZM19.4492 11.8246H3.71777C3.22522 11.8248 2.86038 12.2933 2.86035 12.7015V18.2581H18.877V21.183H2.86035V26.7386C2.86035 27.148 3.2252 27.6163 3.71777 27.6165H19.4492V30.5414H4.00391C2.97338 30.5414 2.55472 30.5404 1.83789 29.6761L0.492188 27.9945C0.0891445 27.4939 1.00931e-07 27.2645 0 26.4466V12.9945C0 12.1754 0.0891443 11.9451 0.492188 11.4456L1.83789 9.76303C2.55462 8.89959 2.97346 8.89975 4.00391 8.89975H19.4492V11.8246ZM47.1797 9.36459C47.8946 8.14933 48.1623 8.14916 49.3682 8.64291L51.8662 9.72494C52.6711 10.0854 52.627 10.5815 52.627 11.4369V30.5414H49.7666V11.8246C49.7666 11.5544 49.4556 11.4181 49.2773 11.7337L41.1865 25.2767H36.6104L28.5195 11.7337C28.3412 11.4181 28.0293 11.5544 28.0293 11.8246V30.5414H25.1699V11.4369C25.1699 10.5815 25.1258 10.0854 25.9307 9.72494L28.4287 8.64291C29.6344 8.14925 29.9023 8.1494 30.6172 9.36459L38.3262 22.3519C38.5501 22.7578 38.6124 22.9369 38.8984 22.9369C39.1843 22.9368 39.2469 22.7577 39.4707 22.3519L47.1797 9.36459ZM101.822 8.89975C102.488 8.89984 102.874 9.31079 103.094 9.85483L106.767 18.8431H112.393L111.273 21.7679H107.962L111.547 30.5414H108.114L104.586 21.7679H94.6836L95.8037 18.8431H103.409L100.77 12.2787C100.595 11.8688 100.391 11.8246 100.105 11.8246H96.6738C96.3878 11.8246 96.1848 11.8687 96.0098 12.2787L88.665 30.5414H85.2334L93.6855 9.85483C93.9058 9.31073 94.2922 8.89975 94.958 8.89975H101.822ZM135 11.8246H119.27C118.777 11.8246 118.411 12.2932 118.411 12.7015V26.7386C118.411 27.1482 118.777 27.6165 119.27 27.6165H135V30.5414H119.556C118.525 30.5414 118.106 30.5404 117.389 29.6761L116.043 27.9945C115.64 27.4939 115.551 27.2645 115.551 26.4466V12.9945C115.551 12.1754 115.64 11.945 116.043 11.4456L117.389 9.76303C118.106 8.8994 118.525 8.89975 119.556 8.89975H135V11.8246Z" fill="#12171F"/>
<path d="M103.881 40H87.2559L88.3779 37.1016H105.003L103.881 40ZM119.359 0L118.237 2.89844H101.612L102.734 0H119.359Z" fill="#0066FF"/>
</svg>
