<svg width="190" height="64" viewBox="0 0 190 64" fill="none" xmlns="http://www.w3.org/2000/svg">
<path d="M157.725 34.6051L159.229 30.9251L160.733 34.6051H157.656H157.725ZM153.417 38.6259H156.015L156.767 36.7859H161.691L162.443 38.6259H165.041L159.366 26.1547H159.024L153.348 38.6259H153.417ZM149.929 38.6259H152.391V26.3591H149.929V31.0614H147.468V26.3591H145.006V38.6259H147.468V33.3103H149.929V38.6259ZM135.638 38.7622H135.98L140.561 32.5606V38.6259H142.818V26.1547H142.476L137.894 32.3562V26.291H135.638V38.7622ZM125.928 38.6259H131.74V40.534H133.997V36.3088H133.313V26.291H130.851V36.3088H128.39V26.291H125.928V38.5577V38.6259ZM116.628 38.7622H116.97L121.552 32.5606V38.6259H123.808V26.1547H123.466L118.885 32.3562V26.291H116.628V38.7622ZM109.79 36.3088C109.927 35.8999 110.064 35.4229 110.064 34.8777L110.269 28.5399H111.91V36.3088H109.722H109.79ZM106.44 36.3088V40.534H108.696V38.6259H112.662V40.534H114.919V36.3088H114.235V26.291H107.876L107.602 34.8777C107.602 35.8999 107.123 36.3088 106.371 36.3088M99.6015 38.6259H105.619V36.377H102.063V33.3784H104.73V31.1295H102.063V28.6762H105.345V26.4273H99.6015V38.694V38.6259ZM86.8828 26.291V38.5577H89.2761V29.8347L92.0797 32.8332H92.2848L95.1568 29.8347V38.5577H97.5501V26.291C95.2936 26.5636 93.7208 27.8584 92.2165 29.6302C90.7121 27.8584 89.2077 26.5636 86.8828 26.291Z" fill="#E7343F"/>
<path d="M187.607 10.276V13.6834C186.102 13.6834 185.35 13.1382 185.35 11.9797C185.35 10.8212 186.171 10.276 187.607 10.276ZM187.607 15.9323V20.2938H190V8.02707H188.222C184.53 8.02707 182.957 9.3219 182.957 11.9797C182.957 14.6375 183.504 14.7056 184.94 15.3871L182.683 20.2938H185.35L187.196 15.8642H187.675L187.607 15.9323ZM174.683 16.2731L176.187 12.593L177.692 16.2731H174.614H174.683ZM170.375 20.2938H172.973L173.726 18.4538H178.649L179.401 20.2938H182L176.324 7.82263H175.982L170.307 20.2938H170.375ZM167.571 20.2938H170.17L167.913 13.8879L169.965 8.02707H167.503L165.999 12.7293H165.178V8.02707H162.785V20.2938H165.178V14.9782H165.93L167.64 20.2938H167.571ZM159.502 20.4983C159.981 20.4983 160.391 20.4983 160.802 20.2938V17.9086C160.391 18.0449 160.049 18.0449 159.502 18.0449C157.246 18.0449 155.605 16.5456 155.605 14.1604C155.605 11.7752 157.178 10.276 159.502 10.276C161.827 10.276 160.391 10.276 160.802 10.4123V7.95893C160.391 7.82263 159.981 7.82263 159.502 7.82263C155.81 7.82263 153.075 10.276 153.075 14.1604C153.075 18.0449 155.81 20.4983 159.502 20.4983ZM147.194 12.8656V10.1397C148.425 10.1397 149.04 10.5486 149.04 11.5027C149.04 12.4567 148.356 12.8656 147.194 12.8656ZM147.194 18.1812V14.9782C148.835 14.9782 149.587 15.4553 149.587 16.6138C149.587 17.7723 148.835 18.2494 147.194 18.2494M144.938 20.2938H147.194C150.34 20.2938 151.912 18.999 151.912 16.682C151.912 14.3649 151.365 14.1605 149.998 13.6834C150.955 13.2064 151.365 12.3204 151.365 11.2982C151.365 9.1856 149.861 8.02707 146.852 8.02707H144.938V20.2938ZM136.937 18.0449C134.749 18.0449 133.245 16.4094 133.245 14.1604C133.245 11.9115 134.749 10.276 136.937 10.276C139.125 10.276 140.63 11.9115 140.63 14.1604C140.63 16.4094 139.125 18.0449 136.937 18.0449ZM136.869 20.4983C140.493 20.4983 143.16 17.7723 143.16 14.1604C143.16 10.5486 140.493 7.82263 136.869 7.82263C133.245 7.82263 130.646 10.3441 130.646 14.1604C130.646 17.9768 133.245 20.4983 136.869 20.4983ZM127.637 20.2938H130.236L127.979 13.8879L130.031 8.02707H127.569L126.065 12.7293H125.244V8.02707H122.851V20.2938H125.244V14.9782H125.996L127.706 20.2938H127.637ZM119.569 20.4983C120.047 20.4983 120.457 20.4983 120.868 20.2938V17.9086C120.457 18.0449 120.116 18.0449 119.569 18.0449C117.312 18.0449 115.671 16.5456 115.671 14.1604C115.671 11.7752 117.244 10.276 119.569 10.276C121.893 10.276 120.457 10.276 120.868 10.4123V7.95893C120.457 7.82263 120.047 7.82263 119.569 7.82263C115.876 7.82263 113.141 10.276 113.141 14.1604C113.141 18.0449 115.876 20.4983 119.569 20.4983ZM105.482 18.0449C103.294 18.0449 101.79 16.4094 101.79 14.1604C101.79 11.9115 103.294 10.276 105.482 10.276C107.67 10.276 109.175 11.9115 109.175 14.1604C109.175 16.4094 107.67 18.0449 105.482 18.0449ZM105.482 20.4983C109.106 20.4983 111.773 17.7723 111.773 14.1604C111.773 10.5486 109.106 7.82263 105.482 7.82263C101.858 7.82263 99.2596 10.3441 99.2596 14.1604C99.2596 17.9768 101.858 20.4983 105.482 20.4983ZM86.8828 8.02707V20.2938H89.2761V11.5708L92.0797 14.5693H92.2848L95.1568 11.5708V20.2938H97.5501V8.02707C95.2936 8.29966 93.7208 9.59449 92.2165 11.3664C90.7121 9.59449 89.2077 8.29966 86.8828 8.02707Z" fill="#E7343F"/>
<path d="M65.0695 4.61954C63.7703 3.66546 62.4711 2.91583 61.1035 2.30249C61.1035 3.80176 61.1035 5.50547 61.1035 7.34549C61.5138 7.61808 61.9925 7.89068 62.4027 8.23142C67.1893 11.6389 72.1127 20.6345 66.0269 31.3338C64.1122 34.7412 62.5395 36.7857 60.83 38.762C58.5051 41.4198 56.3853 43.6006 52.0089 47.6895C47.4275 51.8466 40.5895 56.2081 36.6918 58.5251C32.7941 56.2081 25.9561 51.9147 21.3747 47.6895C16.93 43.6687 14.8102 41.4198 12.5536 38.762C10.8441 36.7857 9.2714 34.7412 7.35676 31.3338C1.27093 20.6345 6.19429 11.6389 10.9809 8.23142C11.3912 7.89068 11.8698 7.61808 12.2801 7.34549C12.2801 5.50547 12.2801 3.80176 12.2801 2.30249C10.9809 2.91583 9.6133 3.66546 8.31408 4.61954C2.22825 8.98105 -4.06273 20.2256 3.3907 33.4464C5.16858 36.6494 6.8781 38.9665 9.13464 41.5561C11.5279 44.3502 13.7161 46.6673 18.366 50.8243C24.4518 56.3444 33.8199 61.8644 36.6918 63.5C39.5638 61.8644 48.9318 56.3444 55.0177 50.8243C59.5991 46.6673 61.7873 44.3502 64.249 41.5561C66.5055 38.9665 68.1467 36.6494 69.9929 33.4464C77.4464 20.2256 71.1554 8.9129 65.0695 4.61954Z" fill="#E7343F"/>
<path d="M64.6595 16.1366C63.8389 14.0922 62.5397 12.5248 61.1037 11.2981C61.1037 15.3189 61.1037 18.9308 61.1037 20.1574C61.1037 20.43 61.1037 20.7026 61.1037 20.9752C61.1037 22.1337 60.8986 23.3604 60.4883 24.7234C60.078 26.2226 59.4626 27.5856 58.7104 28.8123C58.5053 29.153 58.2318 29.5619 57.8898 30.039C57.8215 30.1753 57.6847 30.3116 57.6163 30.4479C57.6163 30.4479 57.5479 30.5842 57.4796 30.5842C57.3428 30.7886 57.1377 30.993 57.0009 31.1975C56.8642 31.3338 56.7274 31.5382 56.5906 31.6745C55.223 33.3783 53.5135 35.2864 51.6673 37.2627C50.7783 38.2168 49.821 39.1709 48.8637 40.0568C48.5218 40.3976 48.1799 40.7383 47.838 41.0109C43.7352 44.7591 39.4272 47.6895 36.692 49.4613C33.9568 47.7576 29.6489 44.7591 25.5461 41.0109C25.2042 40.6701 24.8623 40.3976 24.5204 40.0568C23.5631 39.1709 22.6057 38.2168 21.7168 37.2627C19.8705 35.3546 18.0926 33.3783 16.7934 31.6745C16.6566 31.5382 16.5199 31.3338 16.3831 31.1975C16.2464 30.993 16.0412 30.7886 15.9045 30.5842C15.9045 30.5842 15.8361 30.4479 15.7677 30.4479C15.6993 30.3116 15.5626 30.1753 15.4942 30.039C15.1523 29.5619 14.8788 29.153 14.6736 28.8123C13.9214 27.5856 13.306 26.2226 12.8958 24.7234C12.4855 23.4285 12.2803 22.1337 12.2803 20.9752C12.2803 20.7026 12.2803 20.43 12.2803 20.1574C12.2803 18.9308 12.2803 15.3189 12.2803 11.2981C10.9127 12.5248 9.61351 14.1603 8.72457 16.1366C6.94668 20.3619 7.63048 25.3367 10.7076 30.8568C12.6906 34.3323 18.2294 40.3976 22.469 44.2139C28.418 49.6658 34.6406 53.414 36.692 54.5725C38.7434 53.414 44.966 49.6658 50.9151 44.2139C55.1546 40.3294 60.6934 34.3323 62.6765 30.8568C65.7536 25.3367 66.4374 20.3619 64.6595 16.1366Z" fill="#E7343F"/>
<path d="M57.5479 1.07585C53.9921 0.189922 50.2312 0.326223 45.8549 1.48475C42.0256 2.43883 38.9485 4.34699 36.6919 6.25515C34.4354 4.34699 31.3583 2.43883 27.529 1.48475C23.2211 0.394372 19.3918 0.258071 15.836 1.07585C15.7676 1.07585 15.5625 1.07585 15.5625 1.07585C15.5625 1.07585 15.5625 6.32331 15.5625 20.0893C15.5625 33.8554 17.6139 27.6538 20.0072 30.3798V4.89218C21.9902 4.82403 24.0416 5.09662 26.3665 5.64181C31.5634 7.00478 35.0508 10.4804 36.6919 12.4567C38.3331 10.4804 41.7521 6.93664 46.949 5.64181C49.2739 5.02847 51.3253 4.82403 53.3083 4.89218V30.3798C55.6332 27.6538 57.753 24.5871 57.753 20.0893C57.753 6.39145 57.753 1.07585 57.753 1.07585C57.753 1.07585 57.5479 1.07585 57.4795 1.07585" fill="#E7343F"/>
<path d="M46.5387 9.38995C43.1197 10.8211 38.8118 15.387 36.692 18.3174C34.5722 15.387 30.2643 10.8211 26.8453 9.38995C25.8196 8.98106 24.5887 8.70847 23.4263 8.50403V34.1279C24.8623 35.6272 26.2982 37.1265 27.871 38.4894V15.387C31.3584 17.636 34.1619 21.793 36.692 25.3367V25.473C36.7604 25.473 36.8288 25.3367 36.8288 25.3367C39.3588 21.8611 42.1624 17.7041 45.6498 15.387V38.4894C47.1542 37.1265 48.6585 35.6272 50.0261 34.1279V8.50403C48.8637 8.64033 47.6328 8.91291 46.6071 9.38995" fill="#E7343F"/>
</svg>
