<svg width="99" height="24" viewBox="0 0 99 24" fill="none" xmlns="http://www.w3.org/2000/svg">
<g clip-path="url(#clip0_4174_6145)">
<path d="M30.187 6.55319H32.3811V8.49755C32.5102 8.20949 32.6822 7.93584 32.8974 7.6766C33.1125 7.40295 33.3563 7.16531 33.6287 6.96367C33.9156 6.76203 34.2238 6.6036 34.5537 6.48839C34.8835 6.37316 35.2348 6.31555 35.6077 6.31555C36.5542 6.31555 37.2927 6.51719 37.8233 6.92046C38.3539 7.32373 38.7196 7.84943 38.9203 8.49755C39.2502 7.84943 39.7091 7.32373 40.297 6.92046C40.8993 6.51719 41.5949 6.31555 42.3836 6.31555C43.5739 6.31555 44.4917 6.66841 45.137 7.37414C45.7823 8.07987 46.1049 9.17444 46.1049 10.6579V18.0033H43.7387V11.1981C43.7387 10.1754 43.5452 9.45533 43.158 9.03764C42.7851 8.60555 42.276 8.38953 41.6307 8.38953C40.8563 8.38953 40.2755 8.65595 39.8883 9.18884C39.5155 9.70733 39.3291 10.3771 39.3291 11.1981V18.0033H36.9629V11.1981C36.9629 10.1754 36.7693 9.45533 36.3821 9.03764C36.0092 8.60555 35.5002 8.38953 34.8549 8.38953C34.0804 8.38953 33.4997 8.65595 33.1125 9.18884C32.7396 9.70733 32.5532 10.3771 32.5532 11.1981V18.0033H30.187V6.55319Z" fill="#CC0029"/>
<path d="M53.9561 18.2409C53.1673 18.2409 52.4289 18.1185 51.7405 17.8737C51.0665 17.6144 50.4786 17.2399 49.9766 16.7502C49.4747 16.2605 49.0803 15.6556 48.7935 14.9355C48.5067 14.201 48.3633 13.3512 48.3633 12.3862V11.9542C48.3633 11.0468 48.5067 10.2475 48.7935 9.55613C49.0803 8.85044 49.4747 8.2599 49.9766 7.78462C50.4786 7.29493 51.0665 6.92766 51.7405 6.68282C52.4289 6.43798 53.1673 6.31555 53.9561 6.31555C54.7449 6.31555 55.4762 6.43798 56.1502 6.68282C56.8385 6.92766 57.4336 7.29493 57.9356 7.78462C58.4376 8.2599 58.8318 8.85044 59.1187 9.55613C59.4055 10.2475 59.5489 11.0468 59.5489 11.9542V12.3862C59.5489 13.3512 59.4055 14.201 59.1187 14.9355C58.8318 15.6556 58.4376 16.2605 57.9356 16.7502C57.4336 17.2399 56.8385 17.6144 56.1502 17.8737C55.4762 18.1185 54.7449 18.2409 53.9561 18.2409ZM53.9561 16.1669C54.372 16.1669 54.7664 16.0949 55.1392 15.9509C55.5264 15.8068 55.8634 15.5836 56.1502 15.2812C56.4513 14.9788 56.688 14.5899 56.86 14.1146C57.0465 13.6393 57.1397 13.0631 57.1397 12.3862V11.9542C57.1397 11.3349 57.0465 10.802 56.86 10.3555C56.688 9.90901 56.4513 9.54173 56.1502 9.25364C55.8634 8.96564 55.5264 8.74955 55.1392 8.60555C54.7664 8.46154 54.372 8.38953 53.9561 8.38953C53.5402 8.38953 53.1387 8.46154 52.7515 8.60555C52.3787 8.74955 52.0416 8.96564 51.7405 9.25364C51.4537 9.54173 51.217 9.90901 51.0306 10.3555C50.8585 10.802 50.7725 11.3349 50.7725 11.9542V12.3862C50.7725 13.0631 50.8585 13.6393 51.0306 14.1146C51.217 14.5899 51.4537 14.9788 51.7405 15.2812C52.0416 15.5836 52.3787 15.8068 52.7515 15.9509C53.1387 16.0949 53.5402 16.1669 53.9561 16.1669Z" fill="#CC0029"/>
<path d="M66.2087 18.2409C65.3627 18.2409 64.6384 18.1473 64.0361 17.9601C63.4482 17.7728 62.9535 17.5208 62.5519 17.2039C62.1647 16.8871 61.8635 16.5198 61.6484 16.1021C61.4476 15.67 61.3186 15.2236 61.2612 14.7627H63.6274C63.7278 15.166 63.9716 15.5044 64.3588 15.778C64.7459 16.0373 65.3627 16.1669 66.2087 16.1669C67.1551 16.1669 67.822 16.0373 68.2092 15.778C68.5965 15.5188 68.79 15.1804 68.79 14.7627C68.79 14.5755 68.7398 14.4026 68.6395 14.2442C68.539 14.0714 68.3741 13.9201 68.1447 13.7905C67.9296 13.6465 67.6356 13.5168 67.2628 13.4016C66.8899 13.2864 66.4238 13.1928 65.8646 13.1208C65.2192 13.0343 64.6312 12.9119 64.1007 12.7535C63.5701 12.5806 63.1183 12.3574 62.7455 12.0838C62.3726 11.8102 62.0858 11.4789 61.885 11.09C61.6843 10.7012 61.5839 10.2331 61.5839 9.68573C61.5839 9.22484 61.6771 8.79284 61.8635 8.38953C62.05 7.97185 62.3368 7.61178 62.724 7.30933C63.1112 7.00688 63.5916 6.76924 64.1652 6.5964C64.7531 6.40917 65.4343 6.31555 66.2087 6.31555C66.9544 6.31555 67.5997 6.40917 68.1447 6.5964C68.6897 6.78364 69.1414 7.03568 69.4998 7.35254C69.8727 7.66939 70.1524 8.04386 70.3388 8.47595C70.5396 8.89364 70.6686 9.33293 70.726 9.79381H68.3598C68.2451 9.34733 68.0084 9.00164 67.65 8.75675C67.3058 8.51195 66.8254 8.38953 66.2087 8.38953C65.3627 8.38953 64.7747 8.51915 64.4448 8.77835C64.115 9.03764 63.9501 9.34013 63.9501 9.68573C63.9501 9.88741 63.9931 10.0674 64.0791 10.2259C64.1652 10.3843 64.3086 10.5283 64.5094 10.6579C64.7101 10.7732 64.9826 10.8812 65.3268 10.982C65.6853 11.0828 66.137 11.1621 66.682 11.2197C67.3416 11.3061 67.9439 11.4357 68.4888 11.6085C69.0481 11.7814 69.5213 12.0118 69.9085 12.2998C70.3101 12.5734 70.6184 12.9191 70.8335 13.3368C71.0487 13.7401 71.1562 14.2154 71.1562 14.7627C71.1562 15.2524 71.0487 15.7132 70.8335 16.1453C70.6328 16.563 70.3244 16.9303 69.9085 17.2471C69.507 17.5496 68.9907 17.7944 68.3598 17.9817C67.7432 18.1545 67.0261 18.2409 66.2087 18.2409Z" fill="#CC0029"/>
<path d="M75.3518 18.2408C74.8642 18.2408 74.4555 18.0752 74.1256 17.744C73.7957 17.4128 73.6309 17.0023 73.6309 16.5126C73.6309 16.0085 73.7957 15.598 74.1256 15.2811C74.4555 14.9498 74.8642 14.7842 75.3518 14.7842C75.8393 14.7842 76.248 14.9498 76.5778 15.2811C76.9077 15.598 77.0726 16.0085 77.0726 16.5126C77.0726 17.0023 76.9077 17.4128 76.5778 17.744C76.248 18.0752 75.8393 18.2408 75.3518 18.2408Z" fill="#CC0029"/>
<path d="M80.1826 6.55319H82.3767V8.49755C82.6062 7.90703 82.9789 7.39575 83.4953 6.96367C84.0259 6.53159 84.6783 6.31555 85.4524 6.31555C85.8109 6.31555 86.0763 6.32995 86.2487 6.35876C86.4347 6.38757 86.5644 6.41637 86.6361 6.44518V8.60555C86.392 8.53355 86.1702 8.48315 85.9687 8.45434C85.7682 8.41113 85.5241 8.38953 85.2376 8.38953C84.7644 8.38953 84.3556 8.47595 84.0115 8.64876C83.6817 8.80724 83.4092 9.02324 83.1941 9.29693C82.979 9.55613 82.8141 9.86581 82.6993 10.2259C82.599 10.5715 82.5488 10.9316 82.5488 11.3061V18.0033H80.1826V6.55319Z" fill="#CC0029"/>
<path d="M92.5437 18.2408C91.1961 18.2408 90.1779 17.852 89.4892 17.0743C88.8005 16.2821 88.4565 15.0795 88.4565 13.4664V6.55316H90.8232V13.2504C90.8232 14.2154 91.016 14.9426 91.4035 15.4323C91.8055 15.9221 92.4362 16.1669 93.2964 16.1669C93.7701 16.1669 94.1712 16.0877 94.5015 15.9293C94.8455 15.7708 95.1254 15.5548 95.3405 15.2811C95.5555 15.0075 95.7126 14.6978 95.8133 14.3522C95.9285 13.9921 95.9857 13.6249 95.9857 13.2504V6.55316H98.3514V18.0032H96.1572V16.0589C95.885 16.6494 95.4403 17.1607 94.8241 17.5928C94.2216 18.0248 93.4612 18.2408 92.5437 18.2408Z" fill="#CC0029"/>
<path fill-rule="evenodd" clip-rule="evenodd" d="M2.98761 20.4037H7.17026V23.0883C7.17031 23.3494 7.21236 23.5905 7.40636 23.7643C7.7822 24.101 8.38862 24.0753 8.72378 23.6979C8.72378 23.6979 9.56604 22.6591 10.0383 22.204C11.4784 20.7351 12.5982 20.4037 14.3405 20.4037H16.1331C17.7615 20.4037 19.1207 19.3873 19.1207 17.7632V0.480087C19.1207 0.210748 18.9109 0 18.6426 0H0.478017C0.209825 0 0 0.210748 0 0.480087V17.7632C0 19.3873 1.35923 20.4037 2.98761 20.4037ZM2.39009 17.2831V2.40044H16.7306V17.2831C16.7306 17.7191 16.4781 18.0033 16.0136 18.0033H14.3405C12.2948 18.0033 10.7639 18.651 9.20179 20.0436V18.0033H3.10711C2.64258 18.0033 2.39009 17.7191 2.39009 17.2831Z" fill="#CC0029"/>
</g>
<defs>
<clipPath id="clip0_4174_6145">
<rect width="99" height="24" fill="white"/>
</clipPath>
</defs>
</svg>
